<svg version="1.1"
	 xmlns="http://www.w3.org/2000/svg" xmlns:xlink="http://www.w3.org/1999/xlink" xmlns:a="http://ns.adobe.com/AdobeSVGViewerExtensions/3.0/"
	 x="0px" y="0px" viewBox="0 0 14 17" style="enable-background:new 0 0 14 17;"
	 xml:space="preserve">
<defs>
</defs>
<g>
	<path style="fill:#22B473;" d="M1.3,2.6c0,0.7,0.6,1.3,1.3,1.3c0,0,10.2-0.1,10.5,0c0,0,0.7,0.3,0.7,0.6v10.1c0,1-0.8,1.9-1.9,1.9
		H2.3c-1.3,0-2.3-1-2.3-2.4c0,0,0-11.4,0-11.4C0,1.4,0.9,0.1,2.2,0c0,0,9,0,9,0c1.3,0,2.6,1.3,2.6,2.6v0.7c-0.6,0-1.3,0-1.3,0
		c0-0.8-0.1-2-1.3-2H2.6c-0.8,0-1.3,0.4-1.3,1.2C1.3,2.5,1.3,2.6,1.3,2.6z"/>
</g>
</svg>
