<?xml version="1.0" encoding="utf-8"?>
<svg version="1.1" id="Слой_1" xmlns="http://www.w3.org/2000/svg" xmlns:xlink="http://www.w3.org/1999/xlink" x="0px" y="0px"
	 viewBox="0 0 115 24" style="enable-background:new 0 0 115 24;" xml:space="preserve">
<g id="XMLID_16_">
	<g id="XMLID_222_">
		<path id="XMLID_245_" style="fill:#FFFFFF;" d="M31.7,18.6V5.7h2.1v11h5.4v1.8H31.7z"/>
		<path id="XMLID_242_" style="fill:#FFFFFF;" d="M41.1,6.3c0-0.4,0.1-0.7,0.3-0.9s0.5-0.3,0.9-0.3c0.4,0,0.6,0.1,0.8,0.3
			s0.3,0.5,0.3,0.9c0,0.4-0.1,0.6-0.3,0.8s-0.5,0.3-0.8,0.3c-0.4,0-0.7-0.1-0.9-0.3S41.1,6.6,41.1,6.3z M43.3,18.6h-2.1V8.9h2.1
			V18.6z"/>
		<path id="XMLID_240_" style="fill:#FFFFFF;" d="M54.8,18.6h-2.1v-6c0-0.8-0.2-1.3-0.5-1.7s-0.8-0.6-1.4-0.6
			c-0.9,0-1.5,0.3-1.9,0.8s-0.6,1.4-0.6,2.6v4.8h-2.1V8.9h1.6l0.3,1.3h0.1c0.3-0.5,0.7-0.8,1.2-1.1s1.1-0.4,1.8-0.4
			c2.3,0,3.5,1.2,3.5,3.6V18.6z"/>
		<path id="XMLID_236_" style="fill:#FFFFFF;" d="M65.9,8.9V10l-1.7,0.3c0.2,0.2,0.3,0.5,0.4,0.8s0.1,0.6,0.1,0.9c0,1-0.3,1.8-1,2.4
			s-1.6,0.9-2.9,0.9c-0.3,0-0.6,0-0.8-0.1c-0.4,0.3-0.7,0.6-0.7,1c0,0.2,0.1,0.4,0.3,0.5c0.2,0.1,0.6,0.2,1.1,0.2h1.7
			c1.1,0,1.9,0.2,2.4,0.7s0.8,1.1,0.8,2c0,1.1-0.5,2-1.4,2.5s-2.2,0.9-3.9,0.9c-1.3,0-2.3-0.2-3-0.7s-1-1.1-1-2
			c0-0.6,0.2-1.1,0.6-1.5c0.4-0.4,0.9-0.7,1.6-0.8c-0.3-0.1-0.5-0.3-0.7-0.6c-0.2-0.3-0.3-0.5-0.3-0.8c0-0.4,0.1-0.7,0.3-0.9
			s0.5-0.5,0.9-0.7c-0.5-0.2-0.9-0.6-1.2-1.1c-0.3-0.5-0.5-1.1-0.5-1.7c0-1.1,0.3-1.9,1-2.5C58.8,9,59.7,8.7,61,8.7
			c0.3,0,0.6,0,0.9,0.1c0.3,0,0.5,0.1,0.7,0.1H65.9z M58.2,20.1c0,0.4,0.2,0.8,0.6,1c0.4,0.2,1,0.4,1.7,0.4c1.1,0,2-0.2,2.5-0.5
			s0.8-0.8,0.8-1.3c0-0.4-0.2-0.7-0.5-0.9c-0.3-0.2-0.9-0.3-1.7-0.3h-1.6c-0.6,0-1.1,0.1-1.4,0.4C58.4,19.2,58.2,19.6,58.2,20.1z
			 M59.1,12c0,0.6,0.2,1.1,0.5,1.4c0.3,0.3,0.8,0.5,1.3,0.5c1.2,0,1.8-0.6,1.8-1.9c0-0.6-0.1-1.1-0.4-1.5C62,10.2,61.6,10,61,10
			c-0.6,0-1.1,0.2-1.4,0.5C59.3,10.9,59.1,11.4,59.1,12z"/>
		<path id="XMLID_234_" style="fill:#FFFFFF;" d="M74.5,18.6l-0.3-1.3h-0.1c-0.3,0.5-0.7,0.8-1.2,1.1c-0.5,0.3-1.1,0.4-1.8,0.4
			c-1.2,0-2.1-0.3-2.6-0.9s-0.9-1.5-0.9-2.7V8.9h2.1v6c0,0.7,0.2,1.3,0.5,1.7c0.3,0.4,0.8,0.6,1.4,0.6c0.9,0,1.5-0.3,1.9-0.8
			c0.4-0.5,0.6-1.4,0.6-2.6V8.9h2.1v9.7H74.5z"/>
		<path id="XMLID_231_" style="fill:#FFFFFF;" d="M85.2,18.6l-0.4-1.4h-0.1c-0.5,0.6-0.9,1-1.4,1.2c-0.5,0.2-1.1,0.3-1.8,0.3
			c-1,0-1.7-0.3-2.2-0.8c-0.5-0.5-0.8-1.2-0.8-2.2c0-1,0.4-1.8,1.1-2.3s1.9-0.8,3.4-0.8l1.7-0.1v-0.5c0-0.6-0.1-1.1-0.4-1.4
			c-0.3-0.3-0.7-0.5-1.3-0.5c-0.5,0-1,0.1-1.4,0.2s-0.9,0.3-1.3,0.5l-0.7-1.5c0.5-0.3,1.1-0.5,1.7-0.6s1.2-0.2,1.8-0.2
			c1.2,0,2.2,0.3,2.8,0.8c0.6,0.5,0.9,1.4,0.9,2.5v6.5H85.2z M82.1,17.2c0.8,0,1.4-0.2,1.8-0.6c0.5-0.4,0.7-1,0.7-1.8v-0.8L83.4,14
			c-1,0-1.7,0.2-2.1,0.5c-0.4,0.3-0.7,0.7-0.7,1.3c0,0.4,0.1,0.8,0.4,1C81.2,17.1,81.6,17.2,82.1,17.2z"/>
		<path id="XMLID_229_" style="fill:#FFFFFF;" d="M91.6,18.6h-2.1V4.9h2.1V18.6z"/>
		<path id="XMLID_226_" style="fill:#FFFFFF;" d="M98.8,18.8c-1.5,0-2.7-0.4-3.5-1.3c-0.9-0.9-1.3-2.1-1.3-3.6
			c0-1.6,0.4-2.8,1.2-3.7s1.9-1.4,3.3-1.4c1.3,0,2.3,0.4,3,1.2s1.1,1.9,1.1,3.2v1.1h-6.5c0,0.9,0.3,1.7,0.8,2.2
			c0.5,0.5,1.2,0.8,2,0.8c0.6,0,1.1-0.1,1.6-0.2c0.5-0.1,1-0.3,1.6-0.5v1.7c-0.5,0.2-1,0.4-1.5,0.5S99.5,18.8,98.8,18.8z M98.4,10.2
			c-0.7,0-1.2,0.2-1.6,0.6c-0.4,0.4-0.6,1-0.7,1.8h4.4c0-0.8-0.2-1.4-0.6-1.8S99.1,10.2,98.4,10.2z"/>
		<path id="XMLID_223_" style="fill:#FFFFFF;" d="M113.6,13.7c0,1.6-0.4,2.8-1.2,3.7s-1.9,1.3-3.4,1.3c-0.9,0-1.7-0.2-2.4-0.6
			s-1.2-1-1.6-1.8s-0.6-1.7-0.6-2.7c0-1.6,0.4-2.8,1.2-3.7s1.9-1.3,3.4-1.3c1.4,0,2.5,0.5,3.3,1.4S113.6,12.2,113.6,13.7z
			 M106.5,13.7c0,2.2,0.8,3.4,2.5,3.4c1.6,0,2.5-1.1,2.5-3.4c0-2.2-0.8-3.3-2.5-3.3c-0.9,0-1.5,0.3-1.9,0.9
			C106.7,11.8,106.5,12.6,106.5,13.7z"/>
	</g>
</g>
<circle id="XMLID_15_" style="fill:#FFFFFF;" cx="12" cy="12" r="12"/>
<g id="XMLID_2_">
	<g id="XMLID_12_">
		<path id="XMLID_13_" style="fill:#23B474;" d="M5,13.2c-0.1-0.9,0.9-1.9,2.1-2.2c1.2-0.3,3.1-0.4,4.1-0.3c1,0.2,1.9,1.1,2.1,2.1
			c0.2,1,0,2.8-0.3,4.1c-0.3,1.2-1.3,2.2-2.2,2.1c-0.9-0.1-1.7-0.9-1.9-1.9c-0.2-1-1.1-1.9-2-2C5.9,14.9,5.1,14.1,5,13.2z"/>
	</g>
	<g id="XMLID_9_">
		<path id="XMLID_10_" style="fill:#23B474;" d="M8.7,9.2c-0.2,0-0.4,0-0.6-0.1C7.2,8.8,6.8,7.8,7.1,7l0.2-0.5
			c0.3-0.8,1.3-1.3,2.1-0.9c0.8,0.3,1.3,1.3,0.9,2.1l-0.2,0.5C9.9,8.8,9.3,9.2,8.7,9.2z"/>
	</g>
	<g id="XMLID_7_">
		<path id="XMLID_8_" style="fill:#23B474;" d="M13.4,9c-0.3,0-0.6-0.1-0.8-0.2c-0.8-0.5-1-1.5-0.6-2.3l0.4-0.7
			c0.5-0.8,1.5-1,2.3-0.6c0.8,0.5,1,1.5,0.6,2.3l-0.4,0.7C14.5,8.7,13.9,9,13.4,9z"/>
	</g>
	<g id="XMLID_5_">
		<path id="XMLID_6_" style="fill:#23B474;" d="M16.4,17c-0.7,0-1.3-0.4-1.5-1c-0.3-0.8,0.1-1.8,0.9-2.1l0.5-0.2
			c0.8-0.3,1.8,0.1,2.1,0.9c0.3,0.8-0.1,1.8-0.9,2.1L17,16.9C16.8,17,16.6,17,16.4,17z"/>
	</g>
	<g id="XMLID_3_">
		<path id="XMLID_4_" style="fill:#23B474;" d="M16.7,12.3c-0.6,0-1.1-0.3-1.4-0.8c-0.5-0.8-0.2-1.8,0.6-2.3l0.7-0.4
			c0.8-0.5,1.8-0.2,2.3,0.6c0.5,0.8,0.2,1.8-0.6,2.3l-0.7,0.4C17.2,12.2,17,12.3,16.7,12.3z"/>
	</g>
</g>

</svg>
